<svg width="402" height="294" viewBox="0 0 402 294" fill="none" xmlns="http://www.w3.org/2000/svg">
<path d="M-39.5502 74.9746C-44.5155 57.2421 -50.1838 39.6062 -52.9261 21.2382C-56.3589 -1.74944 -57.222 -24.5246 -48.0129 -46.8352C-37.2278 -73.1532 -12.0185 -90.7212 16.3776 -91.3008C36.4504 -91.7045 55.216 -86.0785 73.8715 -79.3772C86.5954 -74.7494 98.8665 -69.1494 111.98 -65.3637C134.366 -58.7856 156.044 -60.1703 177.734 -69.1973C200.168 -78.5415 219.704 -92.1833 238.461 -107.072C252.179 -118.007 265.563 -129.368 280.841 -138.131C314.922 -157.606 350.844 -164.423 388.914 -151.655C408.589 -145.036 421.401 -131.326 428.261 -111.726C434.47 -94.0362 435.551 -75.6107 437.242 -57.2553C439.612 -30.3065 447.593 -4.95818 458.721 19.6993C466.769 37.5982 475.006 55.443 481.299 74.1567C493.149 109.386 484.715 140.262 462.866 168.487C443.403 193.729 418.457 212.583 391.271 228.725C364.54 244.637 336.437 257.589 307.372 268.62C288.887 275.687 270.125 281.781 250.978 285.79C206.599 295.235 162.054 297.504 117.66 285.288C89.1539 277.425 64.61 262.568 43.7709 241.63C21.0613 218.923 4.91491 191.722 -8.38124 162.767C-21.4878 134.488 -31.4582 105.104 -39.5502 74.9746Z" fill="#81A895"/>
</svg>
